/* XPM */
static char *collectible[] = {
/* columns rows colors chars-per-pixel */
"32 32 5 1 ",
"  c None",
". c #FFD700",
"X c #FFA500",
"o c #FF8C00",
"O c #B8860B",
/* pixels */
"                                ",
"                                ",
"                                ",
"                                ",
"                                ",
"           .........            ",
"          ...........           ",
"         .............          ",
"        .....XXX.......         ",
"       .....XXXXX.......        ",
"      ......XXXXXo.......       ",
"      .....XXXXXXo.......       ",
"     ......XXXXXXoo.......      ",
"     .....XXXXXXXoo........     ",
"     .....XXXXXXXooo.......     ",
"     .....XXXXXXoooo.......     ",
"     .....XXXXXooooo.......     ",
"     .....XXXXoooooo.......     ",
"     ......XXooooooo.......     ",
"      .....Xoooooooo......      ",
"      ......oooooooo......      ",
"       ......oooooo......       ",
"        .......OOO......        ",
"         .............          ",
"          ...........           ",
"           .........            ",
"                                ",
"                                ",
"                                ",
"                                ",
"                                ",
"                                "
};
