/* XPM */
static char *exit[] = {
/* columns rows colors chars-per-pixel */
"32 32 7 1 ",
"  c None",
". c #00FF00",
"X c #00DD00",
"o c #00BB00",
"O c #009900",
"+ c #007700",
"@ c #005500",
/* pixels */
"                                ",
"                                ",
"                                ",
"        @@@@@@@@@@@@@@          ",
"        @OOOOOOOOOOOO@          ",
"        @OooooooooooO@          ",
"        @OoXXXXXXXXoO@          ",
"        @OoX......XoO@          ",
"        @OoX......XoO@          ",
"        @OoX......XoO@          ",
"        @OoX......XoO@          ",
"        @OoX......XoO@          ",
"        @OoX......XoO@          ",
"        @OoX......XoO@          ",
"        @OoX......XoO@          ",
"        @OoX......XoO@          ",
"        @OoX......XoO@          ",
"        @OoX......XoO@          ",
"        @OoX......XoO@          ",
"        @OoX......XoO@          ",
"        @OoX......XoO@          ",
"        @OoX......XoO@          ",
"        @OoX......XoO@          ",
"        @OoX......XoO@          ",
"        @OoX......XoO@          ",
"        @OoXXXXXXXXoO@          ",
"        @OoooooooooOO@          ",
"        @OOOOOOOOOOOO@          ",
"        @@@@@@@@@@@@@@          ",
"                                ",
"                                ",
"                                "
};
