/* XPM */
static char *floor[] = {
/* columns rows colors chars-per-pixel */
"32 32 3 1 ",
"  c #2A1E3D",
". c #3D2C54",
"X c #4A3861",
/* pixels */
"  ..XX  ..XX  ..XX  ..XX  ..XX  ",
"  ..XX  ..XX  ..XX  ..XX  ..XX  ",
"XX  ..XX  ..XX  ..XX  ..XX  ..  ",
"XX  ..XX  ..XX  ..XX  ..XX  ..  ",
"  ..XX  ..XX  ..XX  ..XX  ..XX  ",
"  ..XX  ..XX  ..XX  ..XX  ..XX  ",
"XX  ..XX  ..XX  ..XX  ..XX  ..  ",
"XX  ..XX  ..XX  ..XX  ..XX  ..  ",
"  ..XX  ..XX  ..XX  ..XX  ..XX  ",
"  ..XX  ..XX  ..XX  ..XX  ..XX  ",
"XX  ..XX  ..XX  ..XX  ..XX  ..  ",
"XX  ..XX  ..XX  ..XX  ..XX  ..  ",
"  ..XX  ..XX  ..XX  ..XX  ..XX  ",
"  ..XX  ..XX  ..XX  ..XX  ..XX  ",
"XX  ..XX  ..XX  ..XX  ..XX  ..  ",
"XX  ..XX  ..XX  ..XX  ..XX  ..  ",
"  ..XX  ..XX  ..XX  ..XX  ..XX  ",
"  ..XX  ..XX  ..XX  ..XX  ..XX  ",
"XX  ..XX  ..XX  ..XX  ..XX  ..  ",
"XX  ..XX  ..XX  ..XX  ..XX  ..  ",
"  ..XX  ..XX  ..XX  ..XX  ..XX  ",
"  ..XX  ..XX  ..XX  ..XX  ..XX  ",
"XX  ..XX  ..XX  ..XX  ..XX  ..  ",
"XX  ..XX  ..XX  ..XX  ..XX  ..  ",
"  ..XX  ..XX  ..XX  ..XX  ..XX  ",
"  ..XX  ..XX  ..XX  ..XX  ..XX  ",
"XX  ..XX  ..XX  ..XX  ..XX  ..  ",
"XX  ..XX  ..XX  ..XX  ..XX  ..  ",
"  ..XX  ..XX  ..XX  ..XX  ..XX  ",
"  ..XX  ..XX  ..XX  ..XX  ..XX  ",
"XX  ..XX  ..XX  ..XX  ..XX  ..  ",
"XX  ..XX  ..XX  ..XX  ..XX  ..  "
};
