/* XPM */
static char *player[] = {
/* columns rows colors chars-per-pixel */
"32 32 6 1 ",
"  c None",
". c #000000",
"X c #FFD700",
"o c #FF6B6B",
"O c #4ECDC4",
"+ c #FFE66D",
/* pixels */
"                                ",
"                                ",
"                                ",
"                                ",
"           XXXXXXXX             ",
"          XXXXXXXXXX            ",
"         XXXXXXXXXXXX           ",
"         XX..XXXX..XX           ",
"         XX..XXXX..XX           ",
"         XXXXXXXXXXXX           ",
"          XX......XX            ",
"          XXXXXXXXXX            ",
"           XXXXXXXX             ",
"             XXXX               ",
"            OOOOOO              ",
"           OOOOOOOO             ",
"          OOOOooOOOO            ",
"         OOOOooooOOOO           ",
"        OOOOooooooOOOO          ",
"        OOOOooooooOOOO          ",
"         OOOOooooOOOO           ",
"          OOOOOOOOOO            ",
"            OOOOOO              ",
"            OO  OO              ",
"           OO    OO             ",
"          OO      OO            ",
"         OO        OO           ",
"        OO          OO          ",
"                                ",
"                                ",
"                                ",
"                                "
};
