/* XPM */
static char *wall[] = {
/* columns rows colors chars-per-pixel */
"32 32 4 1 ",
"  c #3C3C3C",
". c #4F4F4F",
"X c #636363",
"o c #777777",
/* pixels */
"  .. XX oo  .. XX oo  .. XX oo  ",
"  .. XX oo  .. XX oo  .. XX oo  ",
"  .. XX oo  .. XX oo  .. XX oo  ",
"  .. XX oo  .. XX oo  .. XX oo  ",
"XX oo  .. XX oo  .. XX oo  .. XX",
"XX oo  .. XX oo  .. XX oo  .. XX",
"XX oo  .. XX oo  .. XX oo  .. XX",
"XX oo  .. XX oo  .. XX oo  .. XX",
"oo  .. XX oo  .. XX oo  .. XX oo",
"oo  .. XX oo  .. XX oo  .. XX oo",
"oo  .. XX oo  .. XX oo  .. XX oo",
"oo  .. XX oo  .. XX oo  .. XX oo",
".. XX oo  .. XX oo  .. XX oo  ..",
".. XX oo  .. XX oo  .. XX oo  ..",
".. XX oo  .. XX oo  .. XX oo  ..",
".. XX oo  .. XX oo  .. XX oo  ..",
"  .. XX oo  .. XX oo  .. XX oo  ",
"  .. XX oo  .. XX oo  .. XX oo  ",
"  .. XX oo  .. XX oo  .. XX oo  ",
"  .. XX oo  .. XX oo  .. XX oo  ",
"XX oo  .. XX oo  .. XX oo  .. XX",
"XX oo  .. XX oo  .. XX oo  .. XX",
"XX oo  .. XX oo  .. XX oo  .. XX",
"XX oo  .. XX oo  .. XX oo  .. XX",
"oo  .. XX oo  .. XX oo  .. XX oo",
"oo  .. XX oo  .. XX oo  .. XX oo",
"oo  .. XX oo  .. XX oo  .. XX oo",
"oo  .. XX oo  .. XX oo  .. XX oo",
".. XX oo  .. XX oo  .. XX oo  ..",
".. XX oo  .. XX oo  .. XX oo  ..",
".. XX oo  .. XX oo  .. XX oo  ..",
".. XX oo  .. XX oo  .. XX oo  .."
};
